<svg width="681" height="105" viewBox="0 0 681 105" fill="none" xmlns="http://www.w3.org/2000/svg">
<rect y="5" width="681" height="94" rx="25" fill="white"/>
<path d="M55.666 82V21.8438H67.6289V43.3428H73.3027V21.8438H85.2656V82H73.3027V54.7246H67.6289V82H55.666ZM90.5977 82V21.8438H114.66V33.4648H102.834V45.1885H114.182V56.502H102.834V70.2764H115.446V82H90.5977ZM119.445 82V21.8438H137.902C140.979 21.8438 143.303 22.5501 144.875 23.9629C146.447 25.3529 147.495 27.3125 148.02 29.8418C148.566 32.3483 148.84 35.2992 148.84 38.6943C148.84 41.9756 148.418 44.596 147.575 46.5557C146.755 48.5153 145.194 49.8711 142.893 50.623C144.784 51.0104 146.105 51.9561 146.857 53.46C147.632 54.9411 148.02 56.8665 148.02 59.2363V82H136.159V58.4502C136.159 56.6956 135.795 55.6133 135.065 55.2031C134.359 54.7702 133.208 54.5537 131.613 54.5537V82H119.445ZM131.682 44.1289H134.587C136.25 44.1289 137.082 42.3174 137.082 38.6943C137.082 36.3473 136.9 34.8092 136.535 34.0801C136.171 33.3509 135.487 32.9863 134.484 32.9863H131.682V44.1289ZM167.16 82.5469C162.352 82.5469 158.672 81.0999 156.12 78.2061C153.591 75.2894 152.326 71.0853 152.326 65.5938V37.0195C152.326 31.8698 153.579 27.9619 156.086 25.2959C158.615 22.6299 162.307 21.2969 167.16 21.2969C172.014 21.2969 175.694 22.6299 178.2 25.2959C180.729 27.9619 181.994 31.8698 181.994 37.0195V65.5938C181.994 71.0853 180.718 75.2894 178.166 78.2061C175.637 81.0999 171.968 82.5469 167.16 82.5469ZM167.263 71.4727C169.086 71.4727 169.997 69.7067 169.997 66.1748V36.8145C169.997 33.8522 169.108 32.3711 167.331 32.3711C165.326 32.3711 164.323 33.8864 164.323 36.917V66.2432C164.323 68.1117 164.551 69.4561 165.007 70.2764C165.463 71.0739 166.215 71.4727 167.263 71.4727ZM186.848 82V21.8438H210.91V33.4648H199.084V45.1885H210.432V56.502H199.084V70.2764H211.696V82H186.848ZM229.982 82.5469C224.491 82.5469 220.526 81.1797 218.088 78.4453C215.673 75.7109 214.465 71.3587 214.465 65.3887V59.5098H226.359V67.0293C226.359 68.4193 226.564 69.513 226.975 70.3105C227.408 71.0853 228.148 71.4727 229.196 71.4727C230.29 71.4727 231.042 71.1536 231.452 70.5156C231.885 69.8776 232.102 68.8294 232.102 67.3711C232.102 65.5254 231.919 63.9873 231.555 62.7568C231.19 61.5036 230.552 60.3187 229.641 59.2021C228.752 58.0628 227.51 56.7412 225.915 55.2373L220.515 50.1104C216.481 46.305 214.465 41.9528 214.465 37.0537C214.465 31.9268 215.65 28.0189 218.02 25.3301C220.412 22.6413 223.864 21.2969 228.376 21.2969C233.89 21.2969 237.798 22.7666 240.1 25.7061C242.424 28.6455 243.586 33.1117 243.586 39.1045H231.35V34.9688C231.35 34.1484 231.11 33.5104 230.632 33.0547C230.176 32.599 229.549 32.3711 228.752 32.3711C227.795 32.3711 227.089 32.6445 226.633 33.1914C226.2 33.7155 225.983 34.3991 225.983 35.2422C225.983 36.0853 226.211 36.9967 226.667 37.9766C227.123 38.9564 228.023 40.0843 229.367 41.3604L236.306 48.0254C237.696 49.347 238.972 50.7484 240.134 52.2295C241.296 53.6878 242.23 55.3968 242.937 57.3564C243.643 59.2933 243.996 61.6631 243.996 64.4658C243.996 70.1169 242.948 74.5488 240.852 77.7617C238.778 80.9518 235.155 82.5469 229.982 82.5469ZM278.791 82.5469C273.983 82.5469 270.303 81.0999 267.751 78.2061C265.222 75.2894 263.957 71.0853 263.957 65.5938V37.0195C263.957 31.8698 265.21 27.9619 267.717 25.2959C270.246 22.6299 273.938 21.2969 278.791 21.2969C283.645 21.2969 287.325 22.6299 289.831 25.2959C292.36 27.9619 293.625 31.8698 293.625 37.0195V65.5938C293.625 71.0853 292.349 75.2894 289.797 78.2061C287.268 81.0999 283.599 82.5469 278.791 82.5469ZM278.894 71.4727C280.716 71.4727 281.628 69.7067 281.628 66.1748V36.8145C281.628 33.8522 280.739 32.3711 278.962 32.3711C276.957 32.3711 275.954 33.8864 275.954 36.917V66.2432C275.954 68.1117 276.182 69.4561 276.638 70.2764C277.093 71.0739 277.845 71.4727 278.894 71.4727ZM298.479 82V21.8438H322.541V33.5674H310.578V43.1377H321.926V54.7246H310.578V82H298.479ZM348.005 82V33.3965H340.861V21.8438H367.18V33.3965H360.036V82H348.005ZM370.529 82V21.8438H382.492V43.3428H388.166V21.8438H400.129V82H388.166V54.7246H382.492V82H370.529ZM405.461 82V21.8438H429.523V33.4648H417.697V45.1885H429.045V56.502H417.697V70.2764H430.31V82H405.461ZM455.432 82L448.972 21.8438H460.729L464.045 59.8174L467.429 21.8438H478.64L481.853 59.8174L485.065 21.8438H496.96L490.397 82H475.974L472.966 53.0498L470.095 82H455.432ZM514.904 82.5469C510.096 82.5469 506.416 81.0999 503.864 78.2061C501.335 75.2894 500.07 71.0853 500.07 65.5938V37.0195C500.07 31.8698 501.324 27.9619 503.83 25.2959C506.359 22.6299 510.051 21.2969 514.904 21.2969C519.758 21.2969 523.438 22.6299 525.944 25.2959C528.474 27.9619 529.738 31.8698 529.738 37.0195V65.5938C529.738 71.0853 528.462 75.2894 525.91 78.2061C523.381 81.0999 519.712 82.5469 514.904 82.5469ZM515.007 71.4727C516.83 71.4727 517.741 69.7067 517.741 66.1748V36.8145C517.741 33.8522 516.853 32.3711 515.075 32.3711C513.07 32.3711 512.067 33.8864 512.067 36.917V66.2432C512.067 68.1117 512.295 69.4561 512.751 70.2764C513.207 71.0739 513.959 71.4727 515.007 71.4727ZM534.592 82V21.8438H553.049C556.125 21.8438 558.449 22.5501 560.021 23.9629C561.594 25.3529 562.642 27.3125 563.166 29.8418C563.713 32.3483 563.986 35.2992 563.986 38.6943C563.986 41.9756 563.565 44.596 562.722 46.5557C561.901 48.5153 560.34 49.8711 558.039 50.623C559.93 51.0104 561.252 51.9561 562.004 53.46C562.779 54.9411 563.166 56.8665 563.166 59.2363V82H551.306V58.4502C551.306 56.6956 550.941 55.6133 550.212 55.2031C549.506 54.7702 548.355 54.5537 546.76 54.5537V82H534.592ZM546.828 44.1289H549.733C551.397 44.1289 552.229 42.3174 552.229 38.6943C552.229 36.3473 552.046 34.8092 551.682 34.0801C551.317 33.3509 550.633 32.9863 549.631 32.9863H546.828V44.1289ZM567.951 82V21.8438H579.982V71.7461H592.355V82H567.951ZM595.773 82V21.8438H612.316C616.646 21.8438 619.904 23.0514 622.092 25.4668C624.279 27.8594 625.373 31.3685 625.373 35.9941V64.1582C625.373 69.8548 624.37 74.2526 622.365 77.3516C620.383 80.4505 616.896 82 611.906 82H595.773ZM607.873 71.3701H609.958C612.168 71.3701 613.273 70.2992 613.273 68.1572V37.1221C613.273 35.1169 613 33.8294 612.453 33.2598C611.929 32.6673 610.847 32.3711 609.206 32.3711H607.873V71.3701Z" fill="url(#paint0_linear_88_2)"/>
<defs>
<linearGradient id="paint0_linear_88_2" x1="53" y1="52.79" x2="628" y2="52.7901" gradientUnits="userSpaceOnUse">
<stop stop-color="#0376F2"/>
<stop offset="1" stop-color="#F0141E"/>
</linearGradient>
</defs>
</svg>
